<svg width="21" height="14" viewBox="0 0 21 14" fill="none" xmlns="http://www.w3.org/2000/svg">
<path d="M19.8149 6.39104L4.23151 6.39104L8.31005 2.48065C8.7179 2.08961 8.7179 1.46232 8.31005 1.07128C8.10612 0.875764 7.84272 0.778004 7.57081 0.778004C7.29891 0.778004 7.03551 0.875764 6.83158 1.07128L0.977179 6.68432C0.569325 7.07536 0.569325 7.70265 0.977179 8.09369L6.83158 13.7067C7.23943 14.0978 7.8937 14.0978 8.30155 13.7067C8.70941 13.3157 8.70941 12.6884 8.30155 12.2974L4.22301 8.38697L19.8149 8.38697C20.3927 8.38697 20.86 7.9389 20.86 7.38493C20.86 6.83096 20.3927 6.39104 19.8149 6.39104Z" fill="#141518"/>
</svg>
